<svg xmlns="http://www.w3.org/2000/svg" id="Capa_2" data-name="Capa 2" viewBox="0 0 673.09 762.43"><g id="Capa_4" data-name="Capa 4"><g><path d="M622.27,466.2c-11.62-11.62-24.61-21.39-38.6-29.16V142.75l-37.58-38.36-65.45-66.81L443.83,0H0V762.43H499.56c29.91,0,58.66-7.53,84.1-21.67,13.98-7.77,26.97-17.53,38.6-29.16,32.77-32.77,50.83-76.35,50.83-122.7s-18.05-89.93-50.83-122.7Zm-112.99-323.46h-65.45V75.94l65.45,66.81ZM37.58,724.85V37.58H406.25V180.32h139.84v241.33c-14.96-4.14-30.58-6.27-46.52-6.27-46.35,0-89.93,18.05-122.7,50.83-32.77,32.77-50.82,76.35-50.82,122.7s18.05,89.93,50.82,122.7c4.73,4.73,9.69,9.14,14.84,13.25H37.58Zm558.11-39.82c-3.83,3.83-7.84,7.39-12.03,10.7-11.42,9.03-24.09,16.08-37.58,20.98-14.71,5.35-30.4,8.14-46.52,8.14-36.31,0-70.45-14.14-96.13-39.82-25.68-25.68-39.82-59.82-39.82-96.13s14.14-70.45,39.82-96.13c25.68-25.68,59.82-39.82,96.13-39.82,16.12,0,31.81,2.79,46.52,8.14,13.49,4.9,26.16,11.95,37.58,20.98,4.18,3.31,8.2,6.87,12.03,10.7,25.68,25.68,39.82,59.82,39.82,96.13s-14.14,70.45-39.82,96.13Z"></path><path d="M583.67,523.99c-7.26-3.51-16.07-1.15-25.12,7-2.92,2.63-5.77,5.34-8.69,7.98-1.26,1.14-2.52,2.28-3.78,3.42-29.02,26.31-58.09,52.65-88.37,80.1-11.63-11.97-22.15-23.13-33.04-33.91-9.75-9.67-21.11-10.24-29.03-1.99-7.67,7.98-7.04,18.77,2.16,28.17,13.75,14.05,27.74,27.87,41.67,41.74,14.06,13.99,21.21,14.25,36.05,.85,23.55-21.28,47.06-42.61,70.56-63.95,12.53-11.38,25.06-22.76,37.58-34.15,.07-.06,.13-.12,.2-.18,11.62-10.56,13.61-21.8,5.65-30.59-1.8-1.99-3.76-3.48-5.85-4.49Z"></path><rect x="104.29" y="222.94" width="238.75" height="44.21" rx="22.11" ry="22.11"></rect><rect x="104.29" y="289.01" width="210.64" height="44.21" rx="22.11" ry="22.11"></rect></g></g></svg>