<svg xmlns="http://www.w3.org/2000/svg" id="Capa_2" data-name="Capa 2" viewBox="0 0 286.52 280.98"><g id="estrella"><path d="M73.54,243.11c-2.22,0-4.43-.66-6.33-1.95-3.4-2.32-5.25-6.3-4.84-10.39l7.94-77.48L19.78,100.56c-2.88-3-3.85-7.32-2.55-11.26,1.31-3.95,4.68-6.84,8.79-7.53l72.56-12.19L133.58,5.82C135.51,2.29,139.22,.06,143.25,0c4.03-.06,7.8,2.05,9.85,5.52h0s40.43,68.53,40.43,68.53l64.85,9.56c4.18,.62,7.63,3.48,8.99,7.48,1.36,3.98,.38,8.34-2.54,11.37l-46.32,48.01,7.48,77.38c.39,4.05-1.36,7.87-4.69,10.22-3.29,2.32-7.6,2.71-11.25,1l-66.06-30.9-65.28,33.69c-1.63,.84-3.4,1.25-5.16,1.25ZM30.83,93.8l49.09,51.22c2.27,2.37,3.39,5.61,3.05,8.88l-7.73,75.5,63.55-32.8c3.08-1.59,6.79-1.66,9.92-.19l64.42,30.14-7.3-75.53c-.31-3.26,.81-6.48,3.09-8.84l44.82-46.45-62.73-9.25c-3.37-.5-6.3-2.46-8.03-5.4L143.47,14.11l-34.13,62.18c-1.66,3.03-4.57,5.09-7.98,5.66l-70.53,11.85Z"></path><rect x="55.72" y="6.76" width="13.56" height="30.08" rx="6.78" ry="6.78" transform="translate(1.67 47.89) rotate(-42.44)"></rect><rect x="207.32" y="15.02" width="30.08" height="13.56" rx="6.78" ry="6.78" transform="translate(43.54 155.75) rotate(-42.44)"></rect><rect x="265.49" y="158.26" width="13.56" height="30.08" rx="6.78" ry="6.78" transform="translate(-.72 345.48) rotate(-64.72)"></rect><rect x="127.27" y="259.16" width="30.08" height="13.56" rx="6.78" ry="6.78" transform="translate(-124.6 406.42) rotate(-89.61)"></rect><rect x="-.18" y="167.28" width="30.08" height="13.56" rx="6.78" ry="6.78" transform="translate(-36.2 6.99) rotate(-12.11)"></rect></g></svg>