<svg xmlns="http://www.w3.org/2000/svg" id="Capa_2" data-name="Capa 2" viewBox="0 0 568.48 713.26"><g id="estrella"><g><path d="M493.25,464.43c18.63,43.26,36.67,85.27,54.85,127.22,3.79,8.74,6.64,17.42,.07,25.88-7.05,9.08-16.67,7.61-26.29,5.58-20.24-4.27-40.53-8.32-60.71-12.82-6.8-1.52-10.9,.18-14.54,6.38-10.28,17.49-21.32,34.54-31.89,51.87-5.32,8.73-10.7,17.27-22.76,16.23-11.46-.99-15.37-9.84-19.22-18.86-13.59-31.82-27.96-63.32-40.67-95.48-4.64-11.74-11.41-17.63-23.32-20.36-13.23-3.03-26.25-8.05-39.63-2.29-4.51,1.94-9.59,5.64-11.6,9.87-21.9,45.96-43.29,92.16-64.68,138.35-3.99,8.62-8.28,16.55-19.2,17.21-11.52,.7-16.75-7.05-21.67-15.73-10-17.66-20.69-34.93-30.42-52.74-3.82-6.99-7.62-9.44-15.93-7.65-19.82,4.29-39.91,7.29-59.89,10.82-9.62,1.7-19.26,3.03-26.2-6.14-6.9-9.13-3.12-17.9,1.08-26.85,21.09-45.02,41.98-90.14,62.93-135.22,1.33-2.87,2.66-5.75,4.62-9.99-5.26-2.27-10.19-4.38-15.11-6.53-34.83-15.21-52.06-46.32-46.6-83.88,1.32-9.06,2.23-18.17,3.48-27.24,1.91-13.85-.2-26.82-7.08-39.18-5.6-10.07-10.78-20.41-15.6-30.89-13.57-29.53-7.99-61.98,15.38-84.71,48.38-47.06,36.2-27.8,52.64-90.85,8.76-33.6,35.2-54.54,70.02-56.36,11.93-.62,24.04-.4,35.72-2.51,9.5-1.72,19.18-5.13,27.5-9.99,10.94-6.38,20.5-15.08,30.86-22.49,27.97-20.02,61.15-20.28,89.02-.06,54.11,39.26,32.31,30.02,98.85,35.27,29.73,2.34,55.65,23.1,64.4,52.55,3.73,12.56,5.18,25.9,9.81,38.07,4.11,10.8,10.11,21.31,17.23,30.42,7.03,9,16.59,16,24.87,24.05,25.25,24.5,32.81,57.9,15.67,88.32-17.77,31.54-24.71,62.66-18.16,99.03,6.81,37.82-12.53,64.92-47.83,81.66ZM63.8,390.3c-.26,18.92,7.35,31.42,25.64,37.86,37.02,13.04,66.43,33.86,85.91,69.27,15.1,27.46,27.63,31.64,57.5,20.6,34.54-12.76,67.64-12.84,102.21-.02,30.17,11.2,41.96,6.75,58.26-21.54,18.16-31.54,43.17-52.7,77.47-65.08,31.49-11.36,37.06-22.76,31.37-55.97-5.34-31.18-2.74-60.17,12.92-88.78,22.85-41.74,21.66-46.5-13.82-78.09-21.44-19.09-35.53-41.43-40.26-69.71-.92-5.48-2.23-10.91-3.52-16.32-5.87-24.59-15.94-34.33-41.5-34.1-40.07,.37-75.19-10.67-104.58-38.38-.58-.54-1.23-1.01-1.87-1.48-18.52-13.66-33.81-15.04-50.85,.29-31.71,28.54-68.2,41.19-110.29,39.43-1.19-.05-2.39,.07-3.58,.19-15.84,1.59-26.62,9.78-31.68,24.92-1.88,5.63-3.38,11.48-4.24,17.34-5.05,34.29-20.96,62.16-48.44,83.41-3.76,2.91-7.16,6.34-10.49,9.75-12.18,12.52-14.83,26.79-7.56,42.69,4.3,9.39,8.95,18.65,13.96,27.68,11.89,21.45,14.84,44.14,10.76,68.13-1.66,9.79-2.37,19.74-3.3,27.88Zm58.46,97.19c-18.61,39.94-36.3,77.89-54.75,117.49,16.87-2.83,32.04-5.26,47.16-7.95,18.32-3.27,22.1-1.7,31.18,13.78,7.94,13.53,15.86,27.07,24.74,42.21,14.49-31.15,28.13-60.49,42.58-91.55-50.81,.55-67.27-39.72-90.9-73.98Zm336.24-6.94c-1.52-.6-3.03-1.19-4.55-1.79-8.56,11.61-18.03,22.66-25.49,34.93-13.89,22.83-30.59,41.54-59.33,46.77,9.34,21.63,18.2,42.13,27.7,64.12,9.03-14.46,17.02-27.23,24.98-40.01,10.26-16.49,14.37-18.21,33.23-14.27,14.63,3.05,29.3,5.9,46.1,9.28-14.83-34.45-28.73-66.74-42.63-99.02Z"></path><path d="M459.17,281.13c-.25,96.9-79.2,175.58-175.82,175.21-96.67-.36-174.83-79.38-174.5-176.41,.33-96.8,79.29-174.95,176.3-174.48,96.12,.47,174.27,79.36,174.02,175.67Zm-38.27,1.27c1.15-75.06-59.84-137.65-135.09-138.65-75.4-1-137.63,59.55-138.65,134.92-1.03,75.66,58.91,137.86,134.33,139.41,75.46,1.55,138.25-59.56,139.41-135.68Z"></path><path d="M248.85,309.18c32.01-29.01,62.68-56.81,93.35-84.61,2.95-2.68,5.84-5.42,8.8-8.09,11.81-10.63,23.21-11.55,31.37-2.55,8.06,8.9,6.05,20.29-5.72,30.99-36.55,33.23-73.1,66.45-109.75,99.56-15.03,13.58-22.28,13.31-36.52-.86-14.12-14.05-28.29-28.05-42.22-42.28-9.32-9.53-9.96-20.45-2.19-28.54,8.03-8.36,19.53-7.78,29.41,2.02,11.03,10.93,21.69,22.23,33.47,34.36Z"></path></g></g></svg>