<svg xmlns="http://www.w3.org/2000/svg" id="Capa_2" data-name="Capa 2" viewBox="0 0 1597.02 1815.64"><g id="Capa_1-2" data-name="Capa 1"><g><path d="M1526.37,1368.25c-41.47-36.25-100.02-68.51-174.04-95.88-76.8-28.4-166.53-50.19-264.17-64.62l203-340.16,.04-.07c52.9-89.12,80.85-191.21,80.85-294.75,.02-99.89-26.09-201.23-80.89-293.05-53.62-89.86-128.16-159.91-213.59-207.34C992.13,24.94,895.78,0,798.11,0c-99.98-.01-201.43,26.21-293.43,81.12-89.86,53.62-159.91,128.16-207.34,213.59-47.44,85.44-72.38,181.79-72.38,279.46-.02,99.98,26.21,201.43,81.12,293.43l202.98,340.13c-97.72,14.42-187.53,36.23-264.39,64.65-74.02,27.37-132.57,59.63-174.04,95.88C23.77,1409.24,0,1454.06,0,1501.46s23.77,92.22,70.65,133.2c41.47,36.25,100.02,68.51,174.04,95.88,148.4,54.88,345.08,85.1,553.82,85.1s405.42-30.22,553.82-85.1c74.02-27.37,132.57-59.63,174.04-95.88,46.88-40.98,70.65-85.8,70.65-133.2s-23.77-92.22-70.65-133.2ZM366.07,831.8c-48.32-81-71.24-169.8-71.25-257.63,0-85.77,21.93-170.53,63.6-245.55,41.68-75.03,102.98-140.3,182.07-187.52,80.99-48.32,169.79-71.23,257.63-71.25,85.76,0,170.53,21.93,245.55,63.6,75.03,41.68,140.3,102.98,187.52,182.07,48.19,80.77,71.01,169.47,71.02,257.25,.01,90.94-24.59,180.8-71.02,259.03l-218.67,366.43-34.02,57-179.86,301.39-179.88-301.41-34.02-57-218.66-366.4Zm1120.81,757.69c-35.44,30.99-89.16,60.3-155.36,84.78-68.71,25.41-148.96,45.4-238.51,59.4-93.22,14.58-192.3,21.97-294.5,21.97s-201.29-7.39-294.5-21.97c-89.55-14.01-169.8-33.99-238.51-59.4-66.19-24.48-119.92-53.79-155.36-84.78-33.27-29.09-50.14-58.71-50.14-88.03s16.87-58.95,50.14-88.03c35.44-30.99,89.16-60.3,155.36-84.78,68.71-25.41,148.96-45.4,238.51-59.4,12.71-1.99,25.54-3.83,38.47-5.55l256.15,429.23,29.99-50.25,226.15-378.95c12.85,1.71,25.61,3.55,38.25,5.52,89.55,14.01,169.8,33.99,238.51,59.4,66.19,24.48,119.92,53.79,155.36,84.78,33.27,29.09,50.14,58.71,50.14,88.03s-16.87,58.95-50.14,88.03Z"></path><path d="M798.51,829.85c37.1,0,72.62-7.54,104.88-21.19,48.39-20.47,89.46-54.59,118.5-97.57,29.04-42.95,46.04-94.98,46.03-150.65,0-37.1-7.54-72.62-21.19-104.88-20.47-48.39-54.59-89.46-97.56-118.5-42.96-29.04-94.98-46.04-150.65-46.03-37.1,0-72.63,7.54-104.88,21.19-48.39,20.48-89.46,54.59-118.5,97.57-29.04,42.96-46.05,94.98-46.03,150.65,0,37.1,7.54,72.62,21.19,104.88,20.47,48.39,54.59,89.45,97.57,118.5,42.95,29.05,94.98,46.05,150.65,46.03Zm-199.56-269.41c0-27.65,5.58-53.81,15.67-77.67,15.12-35.77,40.47-66.31,72.34-87.83,31.89-21.52,70.1-34.04,111.55-34.06,27.65,0,53.81,5.58,77.67,15.67,35.76,15.12,66.3,40.47,87.83,72.34,21.52,31.89,34.04,70.1,34.06,111.55,0,27.65-5.58,53.81-15.67,77.67-15.12,35.77-40.47,66.31-72.34,87.83-31.89,21.52-70.1,34.05-111.55,34.06-27.65,0-53.81-5.59-77.67-15.67-35.77-15.12-66.31-40.47-87.83-72.34-21.52-31.89-34.05-70.1-34.06-111.55Z"></path></g></g></svg>