<svg xmlns="http://www.w3.org/2000/svg" id="Capa_2" data-name="Capa 2" viewBox="0 0 85.83 62.42"><defs><style>      .cls-1 {        fill: #3dbdee;      }    </style></defs><g id="Capa_1-2" data-name="Capa 1"><g><path class="cls-1" d="M19.46,0c5.52,0,10.24,2.15,14.16,6.45,1.86,1.99,3.34,4.42,4.43,7.27,1.09,2.86,1.64,5.73,1.64,8.62,0,6.1-1.99,12.28-5.97,18.54-3.98,6.26-9.31,11.58-15.99,15.94-5.65,3.73-10.08,5.59-13.29,5.59-1.28,0-2.35-.39-3.18-1.16-.84-.77-1.25-1.8-1.25-3.08,0-1.93,1.22-3.53,3.66-4.82,5.84-3.02,10.11-6.01,12.81-8.96,2.57-2.76,3.85-4.78,3.85-6.07s-.96-1.96-2.89-2.22l-1.25-.19-1.44-.1c-4.18-.64-7.56-2.59-10.16-5.83S.68,22.83,.68,18.2,2.28,9.34,5.49,5.88C9.15,1.96,13.81,0,19.46,0Z"></path><path class="cls-1" d="M65.6,0c5.52,0,10.24,2.15,14.16,6.45,1.86,1.99,3.34,4.42,4.43,7.27,1.09,2.86,1.64,5.73,1.64,8.62,0,6.1-1.99,12.28-5.97,18.54-3.98,6.26-9.31,11.58-15.99,15.94-5.65,3.73-10.08,5.59-13.29,5.59-1.28,0-2.34-.39-3.18-1.16-.84-.77-1.25-1.8-1.25-3.08,0-1.93,1.22-3.53,3.66-4.82,5.84-3.02,10.11-6.01,12.81-8.96,2.57-2.76,3.85-4.78,3.85-6.07s-.96-1.96-2.89-2.22l-1.25-.19-1.44-.1c-4.17-.64-7.56-2.59-10.16-5.83-2.6-3.24-3.9-7.18-3.9-11.8s1.6-8.86,4.82-12.33c3.66-3.92,8.31-5.88,13.96-5.88Z"></path></g></g></svg>